<mxfile host="app.diagrams.net" modified="2022-01-21T09:54:18.076Z" agent="5.0 (Macintosh; Intel Mac OS X 10_15_7) AppleWebKit/537.36 (KHTML, like Gecko) Chrome/97.0.4692.71 Safari/537.36" etag="m6hIacI4PyGIjC_jE8kb" version="16.4.3" type="github">
  <diagram id="-b6alu3gQdFu2P2N1Ls7" name="Page-1">
    <mxGraphModel dx="1026" dy="489" grid="1" gridSize="10" guides="1" tooltips="1" connect="1" arrows="1" fold="1" page="1" pageScale="1" pageWidth="850" pageHeight="1100" math="0" shadow="0">
      <root>
        <mxCell id="0" />
        <mxCell id="1" parent="0" />
        <mxCell id="wyuh3C71T2Mbg5QPgwXm-7" style="edgeStyle=orthogonalEdgeStyle;rounded=0;orthogonalLoop=1;jettySize=auto;html=1;entryX=0;entryY=0.5;entryDx=0;entryDy=0;" edge="1" parent="1" source="wyuh3C71T2Mbg5QPgwXm-2" target="wyuh3C71T2Mbg5QPgwXm-5">
          <mxGeometry relative="1" as="geometry">
            <Array as="points">
              <mxPoint x="290" y="200" />
              <mxPoint x="290" y="440" />
            </Array>
          </mxGeometry>
        </mxCell>
        <mxCell id="wyuh3C71T2Mbg5QPgwXm-13" style="edgeStyle=orthogonalEdgeStyle;rounded=0;orthogonalLoop=1;jettySize=auto;html=1;" edge="1" parent="1" source="wyuh3C71T2Mbg5QPgwXm-2" target="wyuh3C71T2Mbg5QPgwXm-12">
          <mxGeometry relative="1" as="geometry" />
        </mxCell>
        <mxCell id="wyuh3C71T2Mbg5QPgwXm-2" value="production" style="rounded=0;whiteSpace=wrap;html=1;" vertex="1" parent="1">
          <mxGeometry x="130" y="170" width="120" height="60" as="geometry" />
        </mxCell>
        <mxCell id="wyuh3C71T2Mbg5QPgwXm-15" style="edgeStyle=orthogonalEdgeStyle;rounded=0;orthogonalLoop=1;jettySize=auto;html=1;entryX=0.5;entryY=1;entryDx=0;entryDy=0;" edge="1" parent="1" source="wyuh3C71T2Mbg5QPgwXm-3" target="wyuh3C71T2Mbg5QPgwXm-14">
          <mxGeometry relative="1" as="geometry" />
        </mxCell>
        <mxCell id="wyuh3C71T2Mbg5QPgwXm-3" value="staging" style="rounded=0;whiteSpace=wrap;html=1;" vertex="1" parent="1">
          <mxGeometry x="370" y="160" width="120" height="60" as="geometry" />
        </mxCell>
        <mxCell id="wyuh3C71T2Mbg5QPgwXm-10" style="edgeStyle=orthogonalEdgeStyle;rounded=0;orthogonalLoop=1;jettySize=auto;html=1;entryX=0.5;entryY=1;entryDx=0;entryDy=0;" edge="1" parent="1" source="wyuh3C71T2Mbg5QPgwXm-5" target="wyuh3C71T2Mbg5QPgwXm-9">
          <mxGeometry relative="1" as="geometry" />
        </mxCell>
        <mxCell id="wyuh3C71T2Mbg5QPgwXm-11" style="edgeStyle=orthogonalEdgeStyle;rounded=0;orthogonalLoop=1;jettySize=auto;html=1;entryX=0.5;entryY=1;entryDx=0;entryDy=0;" edge="1" parent="1" source="wyuh3C71T2Mbg5QPgwXm-5" target="wyuh3C71T2Mbg5QPgwXm-2">
          <mxGeometry relative="1" as="geometry" />
        </mxCell>
        <mxCell id="wyuh3C71T2Mbg5QPgwXm-17" style="edgeStyle=orthogonalEdgeStyle;rounded=0;orthogonalLoop=1;jettySize=auto;html=1;entryX=0.5;entryY=1;entryDx=0;entryDy=0;" edge="1" parent="1" source="wyuh3C71T2Mbg5QPgwXm-5" target="wyuh3C71T2Mbg5QPgwXm-3">
          <mxGeometry relative="1" as="geometry" />
        </mxCell>
        <mxCell id="wyuh3C71T2Mbg5QPgwXm-5" value="3-fix-payment" style="rounded=0;whiteSpace=wrap;html=1;" vertex="1" parent="1">
          <mxGeometry x="560" y="410" width="120" height="60" as="geometry" />
        </mxCell>
        <mxCell id="wyuh3C71T2Mbg5QPgwXm-9" value="dev" style="rounded=0;whiteSpace=wrap;html=1;" vertex="1" parent="1">
          <mxGeometry x="560" y="170" width="120" height="60" as="geometry" />
        </mxCell>
        <mxCell id="wyuh3C71T2Mbg5QPgwXm-12" value="production" style="rounded=0;whiteSpace=wrap;html=1;" vertex="1" parent="1">
          <mxGeometry x="130" y="30" width="120" height="60" as="geometry" />
        </mxCell>
        <mxCell id="wyuh3C71T2Mbg5QPgwXm-14" value="dev" style="rounded=0;whiteSpace=wrap;html=1;" vertex="1" parent="1">
          <mxGeometry x="370" y="40" width="120" height="60" as="geometry" />
        </mxCell>
        <mxCell id="wyuh3C71T2Mbg5QPgwXm-16" value="4-payment-history" style="rounded=0;whiteSpace=wrap;html=1;" vertex="1" parent="1">
          <mxGeometry x="560" y="490" width="120" height="60" as="geometry" />
        </mxCell>
      </root>
    </mxGraphModel>
  </diagram>
</mxfile>
